<mxfile host="app.diagrams.net" modified="2024-07-13T04:06:03.780Z" agent="Mozilla/5.0 (Windows NT 10.0; Win64; x64) AppleWebKit/537.36 (KHTML, like Gecko) Chrome/126.0.0.0 Safari/537.36" etag="6vxIRtu7qS8MlX7nvqHD" version="24.6.5" type="google">
  <diagram name="Page-1" id="d4fPg3zjvc2cB00DyhPx">
    <mxGraphModel grid="1" page="1" gridSize="10" guides="1" tooltips="1" connect="1" arrows="1" fold="1" pageScale="1" pageWidth="850" pageHeight="1100" math="0" shadow="0">
      <root>
        <mxCell id="0" />
        <mxCell id="1" parent="0" />
        <mxCell id="zCeu7Eg_tiAKs4yqnjmm-13" value="" style="rounded=0;whiteSpace=wrap;html=1;fontFamily=Times New Roman;" vertex="1" parent="1">
          <mxGeometry x="70" y="30" width="540" height="260" as="geometry" />
        </mxCell>
        <mxCell id="zCeu7Eg_tiAKs4yqnjmm-1" value="Dataset" style="shape=cylinder3;whiteSpace=wrap;html=1;boundedLbl=1;backgroundOutline=1;size=15;fontFamily=Times New Roman;" vertex="1" parent="1">
          <mxGeometry x="80" y="120" width="80" height="80" as="geometry" />
        </mxCell>
        <mxCell id="zCeu7Eg_tiAKs4yqnjmm-8" style="edgeStyle=orthogonalEdgeStyle;rounded=0;orthogonalLoop=1;jettySize=auto;html=1;exitX=1;exitY=0.5;exitDx=0;exitDy=0;exitPerimeter=0;entryX=0.5;entryY=1;entryDx=0;entryDy=0;fontFamily=Times New Roman;" edge="1" parent="1" source="zCeu7Eg_tiAKs4yqnjmm-2" target="zCeu7Eg_tiAKs4yqnjmm-6">
          <mxGeometry relative="1" as="geometry" />
        </mxCell>
        <mxCell id="zCeu7Eg_tiAKs4yqnjmm-2" value="Testing Dataset" style="shape=cylinder3;whiteSpace=wrap;html=1;boundedLbl=1;backgroundOutline=1;size=15;fontFamily=Times New Roman;" vertex="1" parent="1">
          <mxGeometry x="200" y="200" width="80" height="80" as="geometry" />
        </mxCell>
        <mxCell id="zCeu7Eg_tiAKs4yqnjmm-7" style="edgeStyle=orthogonalEdgeStyle;rounded=0;orthogonalLoop=1;jettySize=auto;html=1;exitX=1;exitY=0.5;exitDx=0;exitDy=0;exitPerimeter=0;entryX=0.5;entryY=0;entryDx=0;entryDy=0;fontFamily=Times New Roman;" edge="1" parent="1" source="zCeu7Eg_tiAKs4yqnjmm-3" target="zCeu7Eg_tiAKs4yqnjmm-6">
          <mxGeometry relative="1" as="geometry" />
        </mxCell>
        <mxCell id="zCeu7Eg_tiAKs4yqnjmm-3" value="Training Dataset" style="shape=cylinder3;whiteSpace=wrap;html=1;boundedLbl=1;backgroundOutline=1;size=15;fontFamily=Times New Roman;" vertex="1" parent="1">
          <mxGeometry x="200" y="40" width="80" height="80" as="geometry" />
        </mxCell>
        <mxCell id="zCeu7Eg_tiAKs4yqnjmm-4" style="edgeStyle=orthogonalEdgeStyle;rounded=0;orthogonalLoop=1;jettySize=auto;html=1;exitX=1;exitY=0.5;exitDx=0;exitDy=0;exitPerimeter=0;entryX=0;entryY=0.5;entryDx=0;entryDy=0;entryPerimeter=0;fontFamily=Times New Roman;" edge="1" parent="1" source="zCeu7Eg_tiAKs4yqnjmm-1" target="zCeu7Eg_tiAKs4yqnjmm-3">
          <mxGeometry relative="1" as="geometry" />
        </mxCell>
        <mxCell id="zCeu7Eg_tiAKs4yqnjmm-5" style="edgeStyle=orthogonalEdgeStyle;rounded=0;orthogonalLoop=1;jettySize=auto;html=1;exitX=1;exitY=0.5;exitDx=0;exitDy=0;exitPerimeter=0;entryX=0;entryY=0.5;entryDx=0;entryDy=0;entryPerimeter=0;fontFamily=Times New Roman;" edge="1" parent="1" source="zCeu7Eg_tiAKs4yqnjmm-1" target="zCeu7Eg_tiAKs4yqnjmm-2">
          <mxGeometry relative="1" as="geometry" />
        </mxCell>
        <mxCell id="zCeu7Eg_tiAKs4yqnjmm-12" style="edgeStyle=orthogonalEdgeStyle;rounded=0;orthogonalLoop=1;jettySize=auto;html=1;exitX=1;exitY=0.5;exitDx=0;exitDy=0;entryX=0;entryY=0.5;entryDx=0;entryDy=0;fontFamily=Times New Roman;" edge="1" parent="1" source="zCeu7Eg_tiAKs4yqnjmm-6" target="zCeu7Eg_tiAKs4yqnjmm-11">
          <mxGeometry relative="1" as="geometry" />
        </mxCell>
        <mxCell id="zCeu7Eg_tiAKs4yqnjmm-6" value="Ensemble Model" style="rounded=0;whiteSpace=wrap;html=1;fontFamily=Times New Roman;" vertex="1" parent="1">
          <mxGeometry x="320" y="140" width="120" height="40" as="geometry" />
        </mxCell>
        <mxCell id="zCeu7Eg_tiAKs4yqnjmm-9" value="Training" style="text;html=1;align=center;verticalAlign=middle;resizable=0;points=[];autosize=1;strokeColor=none;fillColor=none;fontFamily=Times New Roman;" vertex="1" parent="1">
          <mxGeometry x="295" y="50" width="60" height="30" as="geometry" />
        </mxCell>
        <mxCell id="zCeu7Eg_tiAKs4yqnjmm-10" value="Evaluation" style="text;html=1;align=center;verticalAlign=middle;resizable=0;points=[];autosize=1;strokeColor=none;fillColor=none;fontFamily=Times New Roman;" vertex="1" parent="1">
          <mxGeometry x="290" y="238" width="80" height="30" as="geometry" />
        </mxCell>
        <mxCell id="zCeu7Eg_tiAKs4yqnjmm-11" value="Prediction" style="rounded=0;whiteSpace=wrap;html=1;fontFamily=Times New Roman;" vertex="1" parent="1">
          <mxGeometry x="480" y="140" width="120" height="40" as="geometry" />
        </mxCell>
      </root>
    </mxGraphModel>
  </diagram>
</mxfile>
